<svg fill="none" height="100%" width="100%" viewBox="0 0 500 500" xmlns:xlink="http://www.w3.org/1999/xlink" xmlns="http://www.w3.org/2000/svg"><g id="i0"><g transform="translate(250,250)"><g transform="rotate(0)"><animateTransform repeatCount="indefinite" type="rotate" attributeName="transform" dur="2.667s" begin="0s" calcMode="spline" values="0; 0; -8; 8; 0; 0" keyTimes="0; 0.05; 0.3; 0.55; 0.8; 1" keySplines="0 0 1 1; 0.5 0 0.5 1; 0.5 0 0.5 1; 0.5 0 0.5 1; 0 0 1 1" fill="freeze" /><g transform="scale(1,1)"><animateTransform repeatCount="indefinite" type="scale" attributeName="transform" dur="2.667s" begin="0s" calcMode="spline" values="1 1; 0.85 0.85; 1.15 1.15; 1 1; 1 1" keyTimes="0; 0.25; 0.5; 0.75; 1" keySplines="0.5 0 0.5 1; 0.5 0 0.5 1; 0.5 0 0.5 1; 0 0 1 1" fill="freeze" /><g transform="translate(-150.25,-150.25)"><g id="i1" transform="matrix(1,0,0,1,150.25,150.25)"><path fill="#ffffff" d="M100,150C100,150,-100,150,-100,150C-127.614,150,-150,127.614,-150,100C-150,100,-150,-100,-150,-100C-150,-127.614,-127.614,-150,-100,-150C-100,-150,100,-150,100,-150C127.614,-150,150,-127.614,150,-100C150,-100,150,100,150,100C150,127.614,127.614,150,100,150Z" /></g></g></g></g></g></g><g id="i2"><g transform="translate(250,248.657)"><g transform="rotate(0)"><animateTransform repeatCount="indefinite" type="rotate" attributeName="transform" dur="2.667s" begin="0s" calcMode="spline" values="0; 0; -8; 8; 0; 0" keyTimes="0; 0.1; 0.35; 0.6; 0.85; 1" keySplines="0 0 1 1; 0.5 0 0.5 1; 0.5 0 0.5 1; 0.5 0 0.5 1; 0 0 1 1" fill="freeze" /><g transform="scale(1,1)"><animateTransform repeatCount="indefinite" type="scale" attributeName="transform" dur="2.667s" begin="0s" calcMode="spline" values="1 1; 1 1; 0.85 0.85; 1.15 1.15; 1 1; 1 1" keyTimes="0; 0.05; 0.3; 0.55; 0.8; 1" keySplines="0 0 1 1; 0.5 0 0.5 1; 0.5 0 0.5 1; 0.5 0 0.5 1; 0 0 1 1" fill="freeze" /><g transform="translate(-100.25,-76.589)"><g id="i3" transform="matrix(1,0,0,1,22.978,97.247)"><path stroke-dasharray="100 0" pathLength="100" d="M-22.728,42.047C-22.725,49.576,-16.621,55.681,-9.091,55.681C-9.091,55.681,22.728,55.681,22.728,55.681C22.728,55.681,22.716,-22.716,22.716,-22.716C22.716,-22.716,-22.75,-56.993,-22.75,-56.993C-22.75,-56.993,-22.728,42.047,-22.728,42.047Z" fill="#ffffff" /></g><g id="i4" transform="matrix(1,0,0,1,177.522,77.932)"><path fill="#f2b428" d="M22.726,-36.366C22.726,-36.366,22.726,-54.542,22.726,-54.542C22.726,-65.837,13.568,-74.995,2.271,-74.995C-2.156,-74.995,-6.46,-73.558,-10.001,-70.903C-10.001,-70.903,-22.729,-61.36,-22.729,-61.36C-22.729,-61.36,-22.729,-2.276,-22.729,-2.276C-22.729,-2.276,-22.729,74.995,-22.729,74.995C-22.729,74.995,9.092,74.995,9.092,74.995C16.623,74.995,22.729,68.891,22.729,61.359C22.729,61.359,22.729,-36.368,22.729,-36.368C22.729,-36.368,22.726,-36.366,22.726,-36.366Z" /></g><g id="i5" transform="matrix(-1,0,0,1,177.574,98.519)"><path stroke-dasharray="100 0" pathLength="100" d="M-22.728,42.047C-22.725,49.576,-16.621,55.681,-9.091,55.681C-9.091,55.681,22.728,55.681,22.728,55.681C22.728,55.681,22.716,-22.716,22.716,-22.716C22.716,-22.716,-22.75,-56.993,-22.75,-56.993C-22.75,-56.993,-22.728,42.047,-22.728,42.047Z" fill="#39a356" /></g><g id="i6" transform="matrix(1,0,0,1,77.521,58.405)"><path fill="#e13e32" d="M-31.814,-41.833C-31.814,-41.833,-44.543,-51.378,-44.543,-51.378C-53.579,-58.155,-66.399,-56.325,-73.176,-47.288C-75.835,-43.748,-77.268,-39.44,-77.268,-35.018C-77.268,-35.018,-77.268,-16.841,-77.268,-16.841C-77.268,-16.841,-31.814,17.251,-31.814,17.251C-31.814,17.251,22.727,58.155,22.727,58.155C22.727,58.155,78.205,16.562,78.205,16.562C78.205,16.562,78.329,-42.588,78.329,-42.588C78.329,-42.588,22.727,-0.929,22.727,-0.929C22.727,-0.929,-31.814,-41.833,-31.814,-41.833Z" /></g><g id="i7" transform="matrix(-1,0,0,1,22.904,77.91)"><path fill="#bd1d1c" d="M22.726,-36.366C22.726,-36.366,22.726,-54.542,22.726,-54.542C22.726,-65.837,13.568,-74.995,2.271,-74.995C-2.156,-74.995,-6.46,-73.558,-10.001,-70.903C-10.001,-70.903,-22.729,-61.36,-22.729,-61.36C-22.729,-61.36,-22.729,-2.276,-22.729,-2.276C-22.729,-2.276,-22.729,74.995,-22.729,74.995C-22.729,74.995,9.092,74.995,9.092,74.995C16.623,74.995,22.729,68.891,22.729,61.359C22.729,61.359,22.729,-36.368,22.729,-36.368C22.729,-36.368,22.726,-36.366,22.726,-36.366Z" /></g><g id="i8" transform="matrix(1,0,0,1,22.978,97.247)"><path stroke-dasharray="100 0" pathLength="100" d="M-22.728,42.047C-22.725,49.576,-16.621,55.681,-9.091,55.681C-9.091,55.681,22.728,55.681,22.728,55.681C22.728,55.681,22.716,-22.716,22.716,-22.716C22.716,-22.716,-22.75,-56.993,-22.75,-56.993C-22.75,-56.993,-22.728,42.047,-22.728,42.047Z" fill="#4084e9" /></g></g></g></g></g></g><g transform="matrix(1,0,0,1,227.57,56.547)" id="i9" /></svg>