<svg fill="none" height="100%" width="100%" viewBox="0 0 240 240" xmlns:xlink="http://www.w3.org/1999/xlink" xmlns="http://www.w3.org/2000/svg"><g transform="matrix(1,0,0,1,122.06,120.56)" id="i0"><g id="i1" transform="matrix(1,0,0,1,-2.06,-0.56)"><rect ry="20" rx="20" height="240" width="240" y="-120" x="-120" stroke-width="0" stroke="#ffffff" fill="#1060a6" /></g></g><g transform="matrix(1,0,0,1,120.087,130.5)" visibility="hidden" id="i2"><animate repeatCount="indefinite" begin="0s" calcMode="discrete" dur="4.44s" values="hidden; visible; visible" keyTimes="0; 0.063; 1" attributeName="visibility" /><g id="i3"><path fill="#ffffff" d="M-23.378,62.078C-23.378,62.078,6.931,62.078,6.931,62.078C6.931,62.078,6.931,5.847,6.931,5.847C6.931,3.055,7.329,0.065,8.127,-1.73C10.121,-7.313,15.106,-13.096,23.481,-13.096C34.448,-13.096,38.835,-4.522,38.835,8.04C38.835,8.04,38.835,62.078,38.835,62.078C38.835,62.078,69.144,62.078,69.144,62.078C69.144,62.078,69.144,4.252,69.144,4.252C69.144,-24.462,54.189,-37.623,34.249,-37.623C18.097,-37.623,8.127,-28.25,4.139,-22.069C4.139,-22.069,3.541,-22.069,3.541,-22.069C3.541,-22.069,2.145,-35.429,2.145,-35.429C2.145,-35.429,-24.176,-35.429,-24.176,-35.429C-23.777,-26.855,-23.378,-16.487,-23.378,-4.323C-23.378,-4.323,-23.378,62.078,-23.378,62.078Z" /></g></g><g visibility="hidden" id="m4"><animate repeatCount="indefinite" begin="0s" calcMode="discrete" dur="4.44s" values="hidden; visible; visible" keyTimes="0; 0.063; 1" attributeName="visibility" /><g transform="translate(121.75,198.005)"><g transform="rotate(3)"><animateTransform repeatCount="indefinite" type="rotate" attributeName="transform" dur="4.44s" begin="0s" calcMode="spline" values="3; 3; 88; 88" keyTimes="0; 0.054054; 0.144144; 1" keySplines="0 0 1 1; 0.333 0 0.667 1; 0 0 1 1" fill="freeze" /><g transform="scale(0.65,1)"><animateTransform repeatCount="indefinite" type="scale" attributeName="transform" dur="4.44s" begin="0s" calcMode="spline" values="0.65 1; 0.65 1; 0.04 0.58; 0.04 0.58" keyTimes="0; 0.072072; 0.144144; 1" keySplines="0 0 1 1; 0.333 0 0.667 1; 0 0 1 1" fill="freeze" /><g transform="translate(27.5,-82.005)"><g id="i1" transform="matrix(1,0,0,1,26.101,18.128)"><rect height="127.755" width="107.202" y="-63.877" x="-53.601" stroke-width="0" stroke="#000000" fill="#1060a6" /></g></g></g></g></g></g><g id="i5"><g transform="translate(111.816,192.44)"><g transform="scale(1,0)"><animateTransform repeatCount="indefinite" type="scale" attributeName="transform" dur="4.44s" begin="0s" calcMode="spline" values="1 0; 1 1; 1 1" keyTimes="0; 0.063063; 1" keySplines="0.333 0 0.833 0.833; 0 0 1 1" fill="freeze" /><g transform="translate(53.229,-72.44)"><g id="i1" transform="matrix(1,0,0,1,-53.229,22.845)"><rect height="99.19" width="32.042" y="-49.595" x="-16.021" stroke-width="0" stroke="#000000" fill="#ffffff" /></g></g></g></g></g><g id="i6"><g transform="translate(66.816,192.44)"><g transform="scale(1,0)"><animateTransform repeatCount="indefinite" type="scale" attributeName="transform" dur="4.44s" begin="0s" calcMode="spline" values="1 0; 1 1; 1 1; 1 0.92; 1 1; 1 1" keyTimes="0; 0.063063; 0.135135; 0.153153; 0.198198; 1" keySplines="0.333 0 0.833 0.833; 0 0 1 1; 0 0 1 1; 0.167 0.167 0.667 1; 0 0 1 1" fill="freeze" /><g transform="translate(53.229,-72.44)"><g id="i1" transform="matrix(1,0,0,1,-53.229,22.845)"><rect height="99.19" width="32.042" y="-49.595" x="-16.021" stroke-width="0" stroke="#000000" fill="#ffffff" /></g></g></g></g></g><g visibility="hidden" id="i7"><animate repeatCount="indefinite" begin="0s" calcMode="discrete" dur="4.44s" values="hidden; visible; visible" keyTimes="0; 0.063; 1" attributeName="visibility" /><g transform="translate(66.816,112.112)"><animateTransform repeatCount="indefinite" type="translate" attributeName="transform" dur="4.44s" begin="0s" calcMode="spline" values="66.816 112.112; 66.816 112.112; 66.816 50.112; 66.816 85.241; 66.816 66.612; 66.816 66.612" keyTimes="0; 0.063063; 0.099099; 0.153153; 0.207207; 1" keySplines="0 0 1 1; 0.167 0.167 0.667 1; 0.333 0 0.667 0.876; 0.333 0.219 0.667 1; 0 0 1 1" fill="freeze" /><g transform="scale(0.927,0.927) translate(53.138,53.388)"><g id="i8" transform="matrix(1,0,0,1,-53.138,-53.388)"><ellipse ry="17.111" rx="17.111" cy="0" cx="0" stroke-width="0" stroke="#000000" fill="#ffffff" /></g></g></g></g><g opacity="0" visibility="hidden" id="i9"><animate repeatCount="indefinite" begin="0s" calcMode="discrete" dur="4.44s" values="hidden; visible; visible" keyTimes="0; 0.901; 1" attributeName="visibility" /><animate repeatCount="indefinite" attributeName="opacity" dur="4.44s" begin="0s" fill="freeze" values="0; 0; 1; 1" keyTimes="0; 0.900901; 0.990991; 1" keySplines="0 0 1 1; 0 0 1 1; 0 0 1 1" calcMode="spline" /><g transform="translate(120,120) scale(1,1) translate(2.06,0.56)"><g id="i1" transform="matrix(1,0,0,1,-2.06,-0.56)"><rect ry="20" rx="20" height="240" width="240" y="-120" x="-120" stroke-width="0" stroke="#ffffff" fill="#1060a6" /></g></g></g></svg>